<svg id="rise-stage" width="800" height="900" style="opacity: 1;"><g transform="translate(80, 140)"><g id="axis-from" class="axis" fill="none" font-size="10" font-family="sans-serif" text-anchor="end" transform="translate(0, 0)"><path class="domain" stroke="currentColor" d="M-6,0.5H0.5V680.5H-6"></path><g class="tick" opacity="1" transform="translate(0,567.1666666666666)"><line stroke="currentColor" x2="520" stroke-dasharray="4"></line><text fill="currentColor" x="-9" dy="0.32em">5</text></g><g class="tick" opacity="1" transform="translate(0,453.83333333333337)"><line stroke="currentColor" x2="520" stroke-dasharray="4"></line><text fill="currentColor" x="-9" dy="0.32em">10</text></g><g class="tick" opacity="1" transform="translate(0,340.5)"><line stroke="currentColor" x2="520" stroke-dasharray="4"></line><text fill="currentColor" x="-9" dy="0.32em">15</text></g><g class="tick" opacity="1" transform="translate(0,227.16666666666669)"><line stroke="currentColor" x2="520" stroke-dasharray="4"></line><text fill="currentColor" x="-9" dy="0.32em">20</text></g><g class="tick" opacity="1" transform="translate(0,113.83333333333326)"><line stroke="currentColor" x2="520" stroke-dasharray="4"></line><text fill="currentColor" x="-9" dy="0.32em">25</text></g><g class="tick" opacity="1" transform="translate(0,0.5)"><line stroke="currentColor" x2="520" stroke-dasharray="4"></line><text fill="currentColor" x="-9" dy="0.32em">30</text></g><text class="axis-label" text-anchor="start" x="-25" y="720" font-family="Fira Sans">1975–80</text><text class="axis-label" text-anchor="start" x="-25" y="-30" font-family="Fira Sans">Donations in billion USD per year</text></g></g><g transform="translate(80, 140)"><g id="axis-to" transform="translate(520, 0)"><text class="axis-label" text-anchor="start" x="-35" y="720" font-family="Fira Sans">2000–05</text></g></g><g transform="translate(80, 140)"><g id="axis-x" transform="translate(0, 0)"></g></g><g id="character-Australia" transform="translate(80, 140)"><path d="M0,645.9237077781333L520,626.3981133136L520,628.3981133136L0,647.9237077781333Z" fill="#1D7DC9"></path><text fill="#1D7DC9" text-anchor="start" y="631.3981133136" x="645">Australia</text></g><g id="character-Belgium" transform="translate(80, 140)"><path d="M0,673.0258371552L520,641.39308434L520,643.39308434L0,675.0258371552Z" fill="#1D7DC9"></path><text fill="#1D7DC9" text-anchor="start" y="646.39308434" x="655">Belgium</text></g><g id="character-Canada" transform="translate(80, 140)"><path d="M0,633.17333784L520,610.3704481333333L520,612.3704481333333L0,635.17333784Z" fill="#1D7DC9"></path><text fill="#1D7DC9" text-anchor="start" y="612.3704481333333" x="525">Canada</text></g><g id="character-Denmark" transform="translate(80, 140)"><path d="M0,668.6316850069334L520,639.6582998149333L520,641.6582998149333L0,670.6316850069334Z" fill="#1D7DC9"></path><text fill="#1D7DC9" text-anchor="start" y="644.6582998149333" x="525">Denmark</text></g><g id="character-Kuwait" transform="translate(80, 140)"><path d="M0,652.8153639989333L520,661.2846487208L520,663.2846487208L0,654.8153639989333Z" fill="#174365"></path><text fill="#174365" text-anchor="start" y="670.2846487208" x="525">Kuwait</text></g><g id="character-Norway" transform="translate(80, 140)"><path d="M0,666.2548566538667L520,622.5647796597333L520,624.5647796597333L0,668.2548566538667Z" fill="#1D7DC9"></path><text fill="#1D7DC9" text-anchor="start" y="627.5647796597333" x="525">Norway</text></g><g id="character-Saudi Arabia" transform="translate(80, 140)"><path d="M0,628.8576378992L520,670.6507826229333L520,672.6507826229333L0,630.8576378992Z" fill="#174365"></path><text fill="#174365" text-anchor="start" y="670.6507826229333" x="575">Saudi Arabia</text></g><g id="character-Sweden" transform="translate(80, 140)"><path d="M0,650.0461754101333L520,626.9498469445333L520,628.9498469445333L0,652.0461754101333Z" fill="#1D7DC9"></path><text fill="#1D7DC9" text-anchor="start" y="631.9498469445333" x="585">Sweden</text></g><g id="character-Switzerland" transform="translate(80, 140)"><path d="M0,667.0898856877334L520,640.1458680474667L520,642.1458680474667L0,669.0898856877334Z" fill="#1D7DC9"></path><text fill="#1D7DC9" text-anchor="start" y="645.1458680474667" x="585">Switzerland</text></g><g id="character-United Arab Emirates" transform="translate(80, 140)"><path d="M0,661.4157343834667L520,669.6513012013334L520,671.6513012013334L0,663.4157343834667Z" fill="#174365"></path><text fill="#174365" text-anchor="start" y="670.6513012013334" x="655">Emirates</text></g><g id="character-United States" transform="translate(80, 140)"><path d="M0,532.1386076637334L520,69.55615476026662L520,71.55615476026662L0,534.1386076637334Z" fill="#1D7DC9"></path><text fill="#1D7DC9" text-anchor="start" y="74.55615476026662" x="525">USA</text></g><g id="character-Japan" transform="translate(80, 140)"><path d="M0,551.3048605618667L520,337.80933679013333L520,339.80933679013333L0,553.3048605618667Z" fill="#1D7DC9"></path><text fill="#1D7DC9" text-anchor="start" y="342.80933679013333" x="525">Japan</text></g><g id="character-Germany" transform="translate(80, 140)"><path d="M0,578.1667248362667L520,485.75180496613336L520,487.75180496613336L0,580.1667248362667Z" fill="#1D7DC9"></path><text fill="#1D7DC9" text-anchor="start" y="485.75180496613336" x="525">Germany</text></g><g id="character-France" transform="translate(80, 140)"><path d="M0,635.4488153029333L520,493.2390109986667L520,495.2390109986667L0,637.4488153029333Z" fill="#1D7DC9"></path><text fill="#1D7DC9" text-anchor="start" y="498.2390109986667" x="525">France</text></g><g id="character-United Kingdom" transform="translate(80, 140)"><path d="M0,620.8159274669333L520,553.5003499376L520,555.5003499376L0,622.8159274669333Z" fill="#1D7DC9"></path><text fill="#1D7DC9" text-anchor="start" y="558.5003499376" x="525">UK</text></g><g id="character-Netherlands" transform="translate(80, 140)"><path d="M0,640.6012332298667L520,569.2601715408L520,571.2601715408L0,642.6012332298667Z" fill="#1D7DC9"></path><text fill="#1D7DC9" text-anchor="start" y="574.2601715408" x="525">Netherlands</text></g><g id="character-Others" transform="translate(80, 140)"><path d="M0,673.5267181285334L520,518.4167549549334L520,520.4167549549334L0,675.5267181285334Z" fill="#1D7DC9"></path><text fill="#1D7DC9" text-anchor="start" y="523.4167549549334" x="525">All others</text></g><g class="chart-title" transform="translate(50,46.666666666666664)"><text style="font-size: 16.8px;"><tspan y="0" x="0">Yearly donations for international aid between the seventies and the noughties</tspan></text></g></svg>