<?xml version="1.0" encoding="UTF-8"?>
<svg width="768px" height="891px" viewBox="0 0 768 891" version="1.1" xmlns="http://www.w3.org/2000/svg" xmlns:xlink="http://www.w3.org/1999/xlink">
    <!-- Generator: Sketch 53.2 (72643) - https://sketchapp.com -->
    <title>Chart</title>
    <desc>Created with Sketch.</desc>
    <g id="Chart" stroke="none" stroke-width="1" fill="none" fill-rule="evenodd">
        <g id="chart" transform="translate(26.000000, 23.000000)">
            <g id="Group" transform="translate(0.000000, 87.000000)">
                <g id="axis-y">
                    <polyline id="Path" stroke="#000000" points="19 43.5 25.5 43.5 25.5 723.5 19 723.5"></polyline>
                    <g id="Group" transform="translate(1.000000, 36.500000)">
                        <path d="M24,7 L664,7" id="Path" stroke="#000000" stroke-dasharray="4"></path>
                        <text id="12" fill="#000000" font-family="FiraSansOT, Fira Sans OT" font-size="13" font-weight="normal">
                            <tspan x="0.5" y="12">12</tspan>
                        </text>
                    </g>
                    <g id="Group" transform="translate(4.000000, 149.833333)">
                        <path d="M21,7 L661,7" id="Path" stroke="#000000" stroke-dasharray="4"></path>
                        <text id="10" fill="#000000" font-family="FiraSansOT, Fira Sans OT" font-size="13" font-weight="normal">
                            <tspan x="0.5" y="12">10</tspan>
                        </text>
                    </g>
                    <g id="Group" transform="translate(4.000000, 263.166667)">
                        <path d="M21,7 L661,7" id="Path" stroke="#000000" stroke-dasharray="4"></path>
                        <text id="8" fill="#000000" font-family="FiraSansOT, Fira Sans OT" font-size="13" font-weight="normal">
                            <tspan x="0.5" y="12">8</tspan>
                        </text>
                    </g>
                    <g id="Group" transform="translate(4.000000, 376.500000)">
                        <path d="M21,7 L661,7" id="Path" stroke="#000000" stroke-dasharray="4"></path>
                        <text id="6" fill="#000000" font-family="FiraSansOT, Fira Sans OT" font-size="13" font-weight="normal">
                            <tspan x="0.5" y="12">6</tspan>
                        </text>
                    </g>
                    <g id="Group" transform="translate(4.000000, 489.833333)">
                        <path d="M21,7 L661,7" id="Path" stroke="#000000" stroke-dasharray="4"></path>
                        <text id="4" fill="#000000" font-family="FiraSansOT, Fira Sans OT" font-size="13" font-weight="normal">
                            <tspan x="0.5" y="12">4</tspan>
                        </text>
                    </g>
                    <g id="Group" transform="translate(4.000000, 603.166667)">
                        <path d="M21,7 L661,7" id="Path" stroke="#000000" stroke-dasharray="4"></path>
                        <text id="2" fill="#000000" font-family="FiraSansOT, Fira Sans OT" font-size="13" font-weight="normal">
                            <tspan x="0.5" y="12">2</tspan>
                        </text>
                    </g>
                    <g id="Group" transform="translate(4.000000, 716.500000)">
                        <path d="M21,7 L661,7" id="Path" stroke="#000000" stroke-dasharray="4"></path>
                        <text id="0" fill="#000000" font-family="FiraSansOT, Fira Sans OT" font-size="13" font-weight="normal">
                            <tspan x="0.5" y="12">0</tspan>
                        </text>
                    </g>
                    <text id="Donations-in-billion-USD" fill="#222222" font-family="FiraSansOT, Fira Sans OT" font-size="14" font-weight="normal">
                        <tspan x="0" y="13">Donations in billion USD</tspan>
                    </text>
                </g>
            </g>
            <g id="Group" transform="translate(25.000000, 810.000000)">
                <g id="axis-x">
                    <polyline id="Path" stroke="#000000" points="0.5 6 0.5 0.5 640.5 0.5 640.5 6"></polyline>
                    <g id="Group" transform="translate(65.497718, 0.000000)">
                        <path d="M15,0 L15,6" id="Path" stroke="#000000"></path>
                        <text id="1985" fill="#000000" font-family="FiraSansOT, Fira Sans OT" font-size="14" font-weight="normal">
                            <tspan x="0.502281542" y="21.5">1985</tspan>
                        </text>
                    </g>
                    <g id="Group" transform="translate(165.484029, 0.000000)">
                        <path d="M15,0 L15,6" id="Path" stroke="#000000"></path>
                        <text id="1990" fill="#000000" font-family="FiraSansOT, Fira Sans OT" font-size="14" font-weight="normal">
                            <tspan x="0.502281542" y="21.5">1990</tspan>
                        </text>
                    </g>
                    <g id="Group" transform="translate(265.470340, 0.000000)">
                        <path d="M15,0 L15,6" id="Path" stroke="#000000"></path>
                        <text id="1995" fill="#000000" font-family="FiraSansOT, Fira Sans OT" font-size="14" font-weight="normal">
                            <tspan x="0.502281542" y="21.5">1995</tspan>
                        </text>
                    </g>
                    <g id="Group" transform="translate(365.456651, 0.000000)">
                        <path d="M15,0 L15,6" id="Path" stroke="#000000"></path>
                        <text id="2000" fill="#000000" font-family="FiraSansOT, Fira Sans OT" font-size="14" font-weight="normal">
                            <tspan x="0.502281542" y="21.5">2000</tspan>
                        </text>
                    </g>
                    <g id="Group" transform="translate(465.497718, 0.000000)">
                        <path d="M15,0 L15,6" id="Path" stroke="#000000"></path>
                        <text id="2005" fill="#000000" font-family="FiraSansOT, Fira Sans OT" font-size="14" font-weight="normal">
                            <tspan x="0.502281542" y="21.5">2005</tspan>
                        </text>
                    </g>
                    <g id="Group" transform="translate(565.484029, 0.000000)">
                        <path d="M15,0 L15,6" id="Path" stroke="#000000"></path>
                        <text id="2010" fill="#000000" font-family="FiraSansOT, Fira Sans OT" font-size="14" font-weight="normal">
                            <tspan x="0.502281542" y="21.5">2010</tspan>
                        </text>
                    </g>
                </g>
            </g>
            <g id="character-Portugal" transform="translate(25.000000, 736.000000)" fill="#F68F5C">
                <polygon id="Path" fill-rule="nonzero" points="0 74 19.9863107 74 39.9726215 74 59.9589322 74 80 74 99.9863107 74 119.972621 74 139.958932 74 160 74 179.986311 74 199.972621 74 219.958932 74 240 74 259.986311 74 279.972621 74 299.958932 74 320 74 339.986311 74 359.972621 74 379.958932 74 400 74 419.986311 74 439.972621 74 459.958932 74 480 74 499.986311 74 519.972621 74 539.958932 74 560 74 579.986311 74 599.972621 74 619.958932 74 640 74 640 56.25285 619.958932 49.3224033 599.972621 46.8275967 579.986311 50.3058533 560 53.7870567 539.958932 59.8157667 519.972621 55.5922867 499.986311 61.27788 480 55.03344 459.958932 0.14418 439.972621 58.82512 419.986311 55.51862 400 51.0469967 379.958932 22.2298433 359.972621 37.5126167 339.986311 69.0966333 320 54.5764233 299.958932 61.4802367 279.972621 58.7908367 259.986311 50.6832533 240 55.22418 219.958932 54.61575 199.972621 72.3349067 179.986311 72.4091967 160 57.2387933 139.958932 69.25445 119.972621 49.6848433 99.9863107 74 80 66.9660233 59.9589322 29.5860833 39.9726215 71.5750067 19.9863107 74"></polygon>
                <text id="Portugal" font-family="FiraSansOT, Fira Sans OT" font-size="13" font-weight="normal">
                    <tspan x="645" y="61.25285">Portugal</tspan>
                </text>
            </g>
            <g id="character-Spain" transform="translate(25.000000, 499.000000)" fill="#D16C59">
                <polygon id="Path" fill-rule="nonzero" points="0 311 19.9863107 311 39.9726215 308.575007 59.9589322 266.586083 80 303.966023 99.9863107 311 119.972621 286.684843 139.958932 306.25445 160 294.238793 179.986311 309.409197 199.972621 309.334907 219.958932 291.61575 240 292.22418 259.986311 287.683253 279.972621 295.790837 299.958932 298.480237 320 291.576423 339.986311 306.096633 359.972621 274.512617 379.958932 259.229843 400 288.046997 419.986311 292.51862 439.972621 295.82512 459.958932 237.14418 480 292.03344 499.986311 298.27788 519.972621 292.592287 539.958932 296.815767 560 290.787057 579.986311 287.305853 599.972621 283.827597 619.958932 286.322403 640 293.25285 640 233.826177 619.958932 216.581773 599.972621 133.80373 579.986311 0.77958 560 37.77583 539.958932 26.0381233 519.972621 66.72394 499.986311 117.462763 480 155.618357 459.958932 129.32474 439.972621 169.12327 419.986311 169.579267 400 143.808627 379.958932 143.16699 359.972621 161.5989 339.986311 196.64423 320 215.063843 299.958932 262.820923 279.972621 265.612267 259.986311 259.801553 240 246.96814 219.958932 214.211407 199.972621 208.252907 179.986311 255.351577 160 224.66142 139.958932 290.137543 119.972621 286.684843 99.9863107 311 80 303.966023 59.9589322 266.586083 39.9726215 308.575007 19.9863107 311"></polygon>
                <text id="Spain" font-family="FiraSansOT, Fira Sans OT" font-size="13" font-weight="normal">
                    <tspan x="645" y="248.826177">Spain</tspan>
                </text>
            </g>
            <g id="character-Taiwan" transform="translate(25.000000, 495.000000)" fill="#A6423B">
                <polygon id="Path" fill-rule="nonzero" points="0 315 19.9863107 315 39.9726215 312.575007 59.9589322 270.586083 80 307.966023 99.9863107 315 119.972621 290.684843 139.958932 294.137543 160 228.66142 179.986311 259.351577 199.972621 212.252907 219.958932 218.211407 240 250.96814 259.986311 263.801553 279.972621 269.612267 299.958932 266.820923 320 219.063843 339.986311 200.64423 359.972621 165.5989 379.958932 147.16699 400 147.808627 419.986311 173.579267 439.972621 173.12327 459.958932 133.32474 480 159.618357 499.986311 121.462763 519.972621 70.72394 539.958932 30.0381233 560 41.77583 579.986311 4.77958 599.972621 137.80373 619.958932 220.581773 640 237.826177 640 237.826177 619.958932 220.581773 599.972621 130.238957 579.986311 0.59554 560 39.7091967 539.958932 26.7076533 519.972621 67.1614767 499.986311 117.15757 480 158.682167 459.958932 131.27199 439.972621 171.44129 419.986311 172.114207 400 143.99785 379.958932 143.925883 359.972621 161.086477 339.986311 193.143943 320 209.59915 299.958932 258.81024 279.972621 267.226997 259.986311 252.85293 240 239.769447 219.958932 215.788057 199.972621 204.022583 179.986311 257.96313 160 228.66142 139.958932 294.137543 119.972621 290.684843 99.9863107 315 80 307.966023 59.9589322 270.586083 39.9726215 312.575007 19.9863107 315"></polygon>
                <text id="Taiwan" font-family="FiraSansOT, Fira Sans OT" font-size="13" font-weight="normal">
                    <tspan x="645" y="239.826177">Taiwan</tspan>
                </text>
            </g>
            <g id="character-Others" transform="translate(25.000000, 463.000000)" fill="#B08A78">
                <polygon id="Path" fill-rule="nonzero" points="0 347 19.9863107 347 39.9726215 344.575007 59.9589322 302.586083 80 339.966023 99.9863107 347 119.972621 322.684843 139.958932 326.137543 160 260.66142 179.986311 289.96313 199.972621 236.022583 219.958932 247.788057 240 271.769447 259.986311 284.85293 279.972621 299.226997 299.958932 290.81024 320 241.59915 339.986311 225.143943 359.972621 193.086477 379.958932 175.925883 400 175.99785 419.986311 204.114207 439.972621 203.44129 459.958932 163.27199 480 190.682167 499.986311 149.15757 519.972621 99.1614767 539.958932 58.7076533 560 71.7091967 579.986311 32.59554 599.972621 162.238957 619.958932 252.581773 640 269.826177 640 237.32161 619.958932 230.766183 599.972621 141.81714 579.986311 0.949416667 560 49.77489 539.958932 32.8980267 519.972621 69.04422 499.986311 124.289347 480 169.487473 459.958932 148.301677 439.972621 189.433687 419.986311 192.174993 400 164.916627 379.958932 174.748747 359.972621 192.33179 339.986311 223.93309 320 240.154547 299.958932 287.966707 279.972621 298.951257 259.986311 283.917023 240 271.769447 219.958932 247.51226 199.972621 236.022583 179.986311 289.962053 160 260.286457 139.958932 326.137543 119.972621 322.684843 99.9863107 347 80 339.966023 59.9589322 302.586083 39.9726215 344.575007 19.9863107 347"></polygon>
                <text id="Others" font-family="FiraSansOT, Fira Sans OT" font-size="13" font-weight="normal">
                    <tspan x="645" y="252.32161">Others</tspan>
                </text>
            </g>
            <g id="character-Ireland" transform="translate(25.000000, 428.000000)" fill="#8F7F7D">
                <polygon id="Path" fill-rule="nonzero" points="0 382 19.9863107 382 39.9726215 379.575007 59.9589322 337.586083 80 374.966023 99.9863107 382 119.972621 357.684843 139.958932 361.137543 160 295.286457 179.986311 324.962053 199.972621 271.022583 219.958932 282.51226 240 306.769447 259.986311 318.917023 279.972621 333.951257 299.958932 322.966707 320 275.154547 339.986311 258.93309 359.972621 227.33179 379.958932 209.748747 400 199.916627 419.986311 227.174993 439.972621 224.433687 459.958932 183.301677 480 204.487473 499.986311 159.289347 519.972621 104.04422 539.958932 67.8980267 560 84.77489 579.986311 35.9494167 599.972621 176.81714 619.958932 265.766183 640 272.32161 640 242.238977 619.958932 233.465277 599.972621 142.47238 579.986311 0.96948 560 46.1383667 539.958932 20.3961167 519.972621 60.6909333 499.986311 123.097367 480 175.643063 459.958932 158.19568 439.972621 201.982977 419.986311 204.339233 400 180.841097 379.958932 195.79662 359.972621 227.33179 339.986311 258.93309 320 275.154547 299.958932 322.966707 279.972621 333.951257 259.986311 318.917023 240 306.769447 219.958932 282.51226 199.972621 271.022583 179.986311 324.962053 160 295.286457 139.958932 361.137543 119.972621 357.684843 99.9863107 382 80 374.966023 59.9589322 337.586083 39.9726215 379.575007 19.9863107 382"></polygon>
                <text id="Ireland" font-family="FiraSansOT, Fira Sans OT" font-size="13" font-weight="normal">
                    <tspan x="645" y="257.238977">Ireland</tspan>
                </text>
            </g>
            <g id="character-Greece" transform="translate(25.000000, 416.000000)" fill="#C48A94">
                <polygon id="Path" fill-rule="nonzero" points="0 394 19.9863107 394 39.9726215 391.575007 59.9589322 349.586083 80 386.966023 99.9863107 394 119.972621 369.684843 139.958932 373.137543 160 307.286457 179.986311 336.962053 199.972621 283.022583 219.958932 294.51226 240 318.769447 259.986311 330.917023 279.972621 345.951257 299.958932 334.966707 320 287.154547 339.986311 270.93309 359.972621 239.33179 379.958932 207.79662 400 192.841097 419.986311 216.339233 439.972621 213.982977 459.958932 170.19568 480 187.643063 499.986311 135.097367 519.972621 72.6909333 539.958932 32.3961167 560 58.1383667 579.986311 12.96948 599.972621 154.47238 619.958932 245.465277 640 254.238977 640 251.93287 619.958932 238.845703 599.972621 145.75155 579.986311 0.22968 560 40.9685367 539.958932 14.4760767 519.972621 56.8516367 499.986311 121.080697 480 172.466767 459.958932 157.515097 439.972621 192.958907 419.986311 204.165477 400 192.841097 379.958932 207.79662 359.972621 239.33179 339.986311 270.93309 320 287.154547 299.958932 334.966707 279.972621 345.951257 259.986311 330.917023 240 318.769447 219.958932 294.51226 199.972621 283.022583 179.986311 336.962053 160 307.286457 139.958932 373.137543 119.972621 369.684843 99.9863107 394 80 386.966023 59.9589322 349.586083 39.9726215 391.575007 19.9863107 394"></polygon>
                <text id="Greece" font-family="FiraSansOT, Fira Sans OT" font-size="13" font-weight="normal">
                    <tspan x="645" y="254.93287">Greece</tspan>
                </text>
            </g>
            <g id="character-India" transform="translate(25.000000, 345.000000)" fill="#B54763">
                <polygon id="Path" fill-rule="nonzero" points="0 465 19.9863107 465 39.9726215 462.575007 59.9589322 420.586083 80 457.966023 99.9863107 465 119.972621 440.684843 139.958932 444.137543 160 378.286457 179.986311 407.962053 199.972621 354.022583 219.958932 365.51226 240 389.769447 259.986311 401.917023 279.972621 416.951257 299.958932 405.966707 320 358.154547 339.986311 341.93309 359.972621 310.33179 379.958932 278.79662 400 263.841097 419.986311 275.165477 439.972621 263.958907 459.958932 228.515097 480 243.466767 499.986311 192.080697 519.972621 127.851637 539.958932 85.4760767 560 111.968537 579.986311 71.22968 599.972621 216.75155 619.958932 309.845703 640 322.93287 640 322.93287 619.958932 309.845703 599.972621 216.75155 579.986311 34.8161333 560 26.5693767 539.958932 0.0309033333 519.972621 104.946177 499.986311 183.192813 480 243.466767 459.958932 228.515097 439.972621 263.958907 419.986311 275.165477 400 263.841097 379.958932 278.79662 359.972621 310.33179 339.986311 341.93309 320 358.154547 299.958932 405.966707 279.972621 416.951257 259.986311 401.917023 240 389.769447 219.958932 365.51226 199.972621 354.022583 179.986311 407.962053 160 378.286457 139.958932 444.137543 119.972621 440.684843 99.9863107 465 80 457.966023 59.9589322 420.586083 39.9726215 462.575007 19.9863107 465"></polygon>
                <text id="India" font-family="FiraSansOT, Fira Sans OT" font-size="13" font-weight="normal">
                    <tspan x="645" y="312.93287">India</tspan>
                </text>
            </g>
            <g id="character-Korea" transform="translate(25.000000, 129.000000)" fill="#922340">
                <polygon id="Path" fill-rule="nonzero" points="0 681 19.9863107 681 39.9726215 678.575007 59.9589322 636.586083 80 673.966023 99.9863107 681 119.972621 656.684843 139.958932 660.137543 160 594.286457 179.986311 623.962053 199.972621 570.022583 219.958932 581.51226 240 605.769447 259.986311 617.917023 279.972621 632.951257 299.958932 621.966707 320 574.154547 339.986311 557.93309 359.972621 526.33179 379.958932 494.79662 400 479.841097 419.986311 491.165477 439.972621 479.958907 459.958932 444.515097 480 459.466767 499.986311 399.192813 519.972621 320.946177 539.958932 216.030903 560 242.569377 579.986311 250.816133 599.972621 432.75155 619.958932 525.845703 640 538.93287 640 138.614717 619.958932 426.106987 599.972621 340.524623 579.986311 141.948927 560 7.67448333 539.958932 0.959823333 519.972621 143.260703 499.986311 268.47868 480 459.466767 459.958932 444.515097 439.972621 479.958907 419.986311 491.165477 400 479.841097 379.958932 494.79662 359.972621 526.33179 339.986311 557.93309 320 574.154547 299.958932 621.966707 279.972621 632.951257 259.986311 617.917023 240 605.769447 219.958932 581.51226 199.972621 570.022583 179.986311 623.962053 160 594.286457 139.958932 660.137543 119.972621 656.684843 99.9863107 681 80 673.966023 59.9589322 636.586083 39.9726215 678.575007 19.9863107 681"></polygon>
                <text id="South-Korea" font-family="FiraSansOT, Fira Sans OT" font-size="13" font-weight="normal">
                    <tspan x="645" y="141.614717">South</tspan>
                    <tspan x="645" y="156.614717">Korea</tspan>
                </text>
            </g>
            <g id="Group" transform="translate(1.000000, 0.666667)" fill="#000000" font-family="FiraSansOT-Bold, Fira Sans OT" font-size="20" font-weight="bold">
                <g id="International-aid-do">
                    <text>
                        <tspan x="0" y="24">International aid donations of countries who have not been donors </tspan>
                        <tspan x="0" y="53">prior to 1980</tspan>
                    </text>
                </g>
            </g>
        </g>
    </g>
</svg>